<?xml version="1.0" encoding="UTF-8" standalone="no"?>
<!-- Created with Inkscape (http://www.inkscape.org/) -->

<svg
   xmlns:dc="http://purl.org/dc/elements/1.1/"
   xmlns:cc="http://creativecommons.org/ns#"
   xmlns:rdf="http://www.w3.org/1999/02/22-rdf-syntax-ns#"
   xmlns:svg="http://www.w3.org/2000/svg"
   xmlns="http://www.w3.org/2000/svg"
   xmlns:sodipodi="http://sodipodi.sourceforge.net/DTD/sodipodi-0.dtd"
   xmlns:inkscape="http://www.inkscape.org/namespaces/inkscape"
   width="95.586487mm"
   height="66.735641mm"
   viewBox="0 0 95.586487 66.735641"
   version="1.1"
   id="svg8"
   inkscape:version="0.92.2 (5c3e80d, 2017-08-06)"
   sodipodi:docname="snap-no-lines.svg">
  <defs
     id="defs2" />
  <sodipodi:namedview
     id="base"
     pagecolor="#ffffff"
     bordercolor="#666666"
     borderopacity="1.0"
     inkscape:pageopacity="0.0"
     inkscape:pageshadow="2"
     inkscape:zoom="1.979899"
     inkscape:cx="197.88197"
     inkscape:cy="129.06274"
     inkscape:document-units="mm"
     inkscape:current-layer="layer1"
     showgrid="false"
     inkscape:window-width="1920"
     inkscape:window-height="1017"
     inkscape:window-x="-8"
     inkscape:window-y="-8"
     inkscape:window-maximized="1"
     fit-margin-top="0"
     fit-margin-left="0"
     fit-margin-right="0"
     fit-margin-bottom="0" />
  <metadata
     id="metadata5">
    <rdf:RDF>
      <cc:Work
         rdf:about="">
        <dc:format>image/svg+xml</dc:format>
        <dc:type
           rdf:resource="http://purl.org/dc/dcmitype/StillImage" />
        <dc:title></dc:title>
      </cc:Work>
    </rdf:RDF>
  </metadata>
  <g
     inkscape:label="Layer 1"
     inkscape:groupmode="layer"
     id="layer1"
     style="display:inline"
     transform="translate(-64.087709,-95.810763)">
    <path
       style="fill:none;stroke:none;stroke-width:0.26458332px;stroke-linecap:butt;stroke-linejoin:miter;stroke-opacity:1"
       d="m 74.189931,103.6846 c -0.36116,-1.32805 -0.398554,-2.68026 1.242833,-2.62376 l 15.673511,0.75951 c 1.712111,0.3279 1.686292,1.042 1.795203,1.72616 l 3.659455,22.71624 c -2.841707,1.55964 -4.181422,3.87028 -5.59275,6.14512 -1.887264,-0.48627 -3.774531,-0.0658 -5.661796,1.10474 l -0.483325,-0.48333 -3.17613,-26.0995 c -0.739632,-0.66954 -1.377744,-0.5269 -1.933297,0.27618 l 2.830898,23.82098 c -1.59494,-0.63994 -3.331691,-0.71265 -5.109426,-0.62142 z"
       id="path3709"
       inkscape:connector-curvature="0"
       sodipodi:nodetypes="ccccccccccccc" />
    <path
       style="fill:none;stroke:none;stroke-width:0.26458332px;stroke-linecap:butt;stroke-linejoin:miter;stroke-opacity:1"
       d="m 86.273034,107.48215 c 3.427918,2.33232 3.399425,4.89507 1.311881,7.59509 1.450266,-0.0264 3.685663,-0.36801 3.452314,-4.41896 -1.482695,-4.56257 -4.012408,-3.41724 -4.764195,-3.17613 z"
       id="path3711"
       inkscape:connector-curvature="0"
       sodipodi:nodetypes="cccc" />
    <path
       style="fill:none;stroke:none;stroke-width:0.26458332px;stroke-linecap:butt;stroke-linejoin:miter;stroke-opacity:1"
       d="m 88.581317,120.11216 c 3.137635,2.51375 3.436042,4.90728 1.348499,7.6073 1.462471,-0.12564 3.649046,-0.58696 3.415696,-4.43117 -1.228137,-4.35719 -3.493716,-3.13815 -4.764195,-3.17613 z"
       id="path3711-7"
       inkscape:connector-curvature="0"
       sodipodi:nodetypes="cccc" />
    <path
       style="fill:none;stroke:none;stroke-width:0.26458332px;stroke-linecap:butt;stroke-linejoin:miter;stroke-opacity:1"
       d="m 71.497124,102.37272 3.452316,29.0685 c -1.327029,-1.53475 -3.161319,-2.60735 -5.040381,-3.03804 0.967267,-1.43225 2.099816,-2.36078 3.797547,-3.24518 -1.772949,-0.27466 -3.36162,-0.15837 -4.626102,-1.44997 l -0.75951,-5.5237 c 0.916434,-2.07034 2.416548,-2.68148 3.659454,-3.93564 -2.161447,-0.50372 -4.061301,-1.04013 -4.764195,-1.72616 l -0.759509,-5.6618 c 1.045213,-2.2579 3.112169,-3.28971 5.04038,-4.48801 z"
       id="path3728"
       inkscape:connector-curvature="0"
       sodipodi:nodetypes="cccccccccc" />
    <path
       style="fill:none;stroke:none;stroke-width:0.26458332px;stroke-linecap:butt;stroke-linejoin:miter;stroke-opacity:1"
       d="m 103.25479,110.97877 c 1.45078,-3.47549 5.98457,-7.38359 11.76637,-2.75851 l -4.56496,11.49785 c -1.67148,-0.15276 -3.30263,-0.0837 -4.58937,1.87969 0.4338,0.72847 0.44209,1.57515 0.29294,2.46556 -2.47881,-0.0184 -4.93924,0.049 -7.225821,0.92764 l -2.197042,-13.47518 c 1.666409,-1.16791 3.473133,-2.06173 6.517883,-0.53705 z"
       id="path3730"
       inkscape:connector-curvature="0"
       sodipodi:nodetypes="cccccccc" />
    <path
       style="fill:none;stroke:none;stroke-width:0.26458332px;stroke-linecap:butt;stroke-linejoin:miter;stroke-opacity:1"
       d="m 125.22519,98.45564 c 1.60517,1.74143 3.42718,3.63913 3.39321,5.80995 -1.57186,-1.06829 -3.16503,-2.8242 -4.56496,-4.442903 l -2.78292,3.515263 c 1.63714,2.94701 5.50015,6.09192 4.56496,8.8614 -2.06593,-2.14606 -3.79728,-4.6692 -5.78554,-6.85965 l -2.88056,5.27289 c 2.31026,3.08322 4.70188,6.27072 5.32172,9.66698 -1.77686,-2.47174 -3.93786,-4.7362 -6.49347,-6.68877 l -3.12468,8.29993 c 0.149,0.65098 0.40793,1.37519 0.12205,2.02616 2.7215,0.8199 5.58627,1.66257 7.20141,5.00437 -0.95342,1.17853 -1.90514,2.30992 -3.1735,3.17351 1.1147,1.81325 1.71589,3.92365 1.65999,5.932 l 2.5388,-0.0244 8.00699,-19.67571 c 0.91757,-2.15329 2.35393,-3.6725 4.4429,-4.39408 l 5.05319,-1.0497 -0.12205,-8.64169 c 0.11144,-2.55711 -1.25654,-4.740114 -3.02704,-6.713177 -1.67704,-1.12059 -3.46945,-1.895076 -5.66348,-1.464694 -1.85381,0.464339 -3.27972,1.417699 -4.68702,2.392333 z"
       id="path3732"
       inkscape:connector-curvature="0"
       sodipodi:nodetypes="cccccccccccccccccccccc" />
    <path
       style="fill:none;stroke:none;stroke-width:0.26458332px;stroke-linecap:butt;stroke-linejoin:miter;stroke-opacity:1"
       d="m 108.80214,122.593 c 0.31187,-0.4828 0.75695,-0.40545 1.16583,-0.28727 0.64156,0.23962 0.55121,0.78413 0.45772,1.29992 -0.24016,1.3288 -0.89977,2.58517 -1.17786,3.86313 0.0122,0.22377 0.12206,0.28479 0.32956,0.18308 0.74475,-0.76212 1.72151,-1.07239 2.7585,-1.04969 1.02581,-0.005 1.99628,0.1145 2.79513,0.62859 0.76065,0.4061 1.69107,0.92196 1.66608,1.61727 -0.25862,0.66734 -0.92624,0.97476 -1.58065,1.29381 -0.65324,0.18545 -1.32134,0.43061 -2.06277,0.27463 -0.33906,0.0412 -0.28827,0.2502 -0.10985,0.53095 0.70748,0.7748 1.25504,1.59757 1.73322,2.44116 0.47638,0.79637 0.80791,1.66903 1.0714,2.54595 0.18001,0.95538 0.5298,1.96136 0.22241,2.97106 -0.97326,-0.11659 -1.82648,-1.57573 -2.7341,-1.92851 -1.26238,-0.6185 -1.81992,-1.00638 -3.75937,-0.97647 -2.25917,0.0348 -2.73824,0.50388 -3.66174,1.02529 -0.7812,-0.37582 -1.6349,-1.54086 -3.00262,-2.14822 -0.97434,-0.56541 -2.11981,-0.76223 -3.393204,-0.68352 -1.842997,-0.0538 -2.783938,0.58222 -3.881437,1.09852 -0.628796,-0.8174 -1.384769,-1.38043 -2.197042,-1.83087 0.548135,-1.48646 1.693354,-2.66371 2.782919,-3.73497 1.036413,-0.99541 2.278301,-1.65891 3.612909,-2.17262 1.347385,-0.59833 2.789345,-0.87749 4.320845,-0.85441 1.42879,-0.0402 2.78824,0.26634 4.12555,0.68353 0.3667,0.0124 0.43758,-0.36349 0.43941,-0.83 -0.0108,-1.3345 -0.23281,-2.62584 0.0792,-3.96034 z"
       id="path3736"
       inkscape:connector-curvature="0"
       sodipodi:nodetypes="cccccccccccccccsccccccccccc" />
    <path
       style="fill:none;stroke:none;stroke-width:0.26458332px;stroke-linecap:butt;stroke-linejoin:miter;stroke-opacity:1"
       d="m 123.57741,138.89338 c 1.17535,0.3368 1.94518,1.05247 2.45336,2.18484 1.90126,-1.00543 3.88441,-1.45121 5.98084,-1.12293 1.69499,0.70424 3.42608,1.36452 4.39408,2.9538 1.35082,-0.85213 2.89722,-1.28701 4.73584,-1.09853 l 4.41849,-9.00786 -2.56321,9.25198 c 1.52193,0.46032 2.80695,1.3056 3.8082,2.61204 1.72145,-0.67535 3.51383,-1.16371 5.59024,-0.90323 l 6.98171,-16.82567 c 0.32546,-1.009 0.12398,-1.88627 -0.19529,-2.73409 l -5.84657,-8.76375 0.69573,-1.78204 c 0.35906,-0.94175 -0.0617,-0.97344 -0.46382,-1.07411 l -8.15346,-0.61029 c -0.7111,0.0617 -0.99399,0.50215 -1.29381,0.92764 -0.19974,0.43433 -0.46016,0.85486 -0.31735,1.36705 l -9.54492,2.17873 c -1.31807,0.58641 -2.44948,1.46889 -2.83174,3.53967 z"
       id="path3738"
       inkscape:connector-curvature="0"
       sodipodi:nodetypes="cccccccccccccccccccc" />
    <path
       style="fill:none;stroke:none;stroke-width:0.26458332px;stroke-linecap:butt;stroke-linejoin:miter;stroke-opacity:1"
       d="m 69.664493,131.3136 -5.419366,30.95385 84.659273,0.14647 2.88057,-15.72104 c -2.05836,-0.44578 -3.89794,0.20231 -5.56584,1.7088 -1.21751,-1.89733 -2.85994,-3.17523 -5.05319,-3.77158 -2.18454,0.0134 -3.78337,1.03289 -5.39495,2.16042 -1.08976,-1.80855 -2.37218,-3.40241 -4.58938,-3.95467 -2.59726,-0.37325 -3.98201,1.03184 -5.66348,2.00175 -1.05035,-1.76238 -2.37335,-3.24386 -4.49172,-3.90585 -2.57517,-0.303 -4.28382,0.59183 -5.76113,1.80645 -1.21195,-1.65234 -2.60534,-3.12324 -4.78467,-3.8082 -2.2006,-0.25151 -3.66985,0.85998 -5.17525,1.9041 -1.08259,-1.55659 -2.27504,-3.03354 -4.63819,-3.66173 -2.438307,-0.32441 -4.136432,0.86237 -5.809953,2.09939 -1.093023,-1.72948 -2.230395,-3.49183 -4.638193,-4.10114 -2.50939,-0.0632 -4.170396,0.95342 -5.614659,2.24586 -1.203685,-1.74774 -2.328529,-3.5965 -4.540549,-4.05231 -2.458764,-0.34517 -4.154421,0.5906 -5.712304,1.75763 -1.139763,-1.8272 -2.733793,-3.05477 -4.687019,-3.8082 z"
       id="path3740"
       inkscape:connector-curvature="0"
       sodipodi:nodetypes="cccccccccccccccccccc" />
    <path
       style="fill:none;stroke:none;stroke-width:0.26458332px;stroke-linecap:butt;stroke-linejoin:miter;stroke-opacity:1"
       d="m 132.89042,120.10869 15.18399,6.27377 c 0.18346,-0.37135 0.45054,-0.73075 0.48823,-1.12293 0.18208,-0.48268 -0.0271,-0.87506 -0.12206,-1.29381 -1.38546,-2.78074 -3.5056,-5.21163 -5.32172,-7.78729 -2.79919,0.45642 -5.59838,0.90654 -8.39757,1.78204 -0.42905,0.22275 -0.88694,0.28011 -1.23932,0.81273 -0.29336,0.40967 -0.54513,0.83602 -0.59155,1.33549 z"
       id="path3742"
       inkscape:connector-curvature="0"
       sodipodi:nodetypes="cccccccc" />
    <path
       style="fill:#dd55ff;stroke-width:0.35714287"
       d="m 321.78117,503.1944 c -0.43551,-0.48957 -1.9121,-11.72099 -6.49243,-49.38369 -3.26079,-26.8125 -5.92842,-49.02545 -5.92807,-49.36212 10e-4,-0.98959 -2.44926,-2.42359 -4.14124,-2.42359 -2.19635,0 -4.3969,1.82211 -4.41819,3.65838 -0.006,0.5389 2.3235,20.61029 5.17721,44.6031 2.85371,23.99282 5.14157,43.67029 5.08415,43.72772 -0.0574,0.0574 -1.19507,-0.19802 -2.5281,-0.56766 -2.95908,-0.82053 -8.10808,-1.42154 -12.17864,-1.42154 h -3.03361 l -0.20214,-1.16072 c -0.11118,-0.63839 -2.84207,-23.01785 -6.06865,-49.73214 -3.22657,-26.71428 -6.03574,-49.34708 -6.24261,-50.2951 -0.20686,-0.94802 -0.37611,-2.68806 -0.37611,-3.86676 0,-1.89248 0.12208,-2.26516 1.04396,-3.18704 0.97732,-0.97732 1.22239,-1.0436 3.83928,-1.03835 1.53744,0.003 15.57212,0.63566 31.18819,1.40572 30.80671,1.51914 30.89021,1.52846 32.67367,3.64798 0.49377,0.58681 0.90404,1.17513 0.91172,1.30738 0.008,0.13225 3.19088,19.91562 7.07378,43.96304 l 7.05981,43.72257 -3.07966,2.05995 c -4.62083,3.09083 -9.58308,8.44841 -13.93855,15.049 l -3.59352,5.4459 -4.53577,-0.11277 c -3.69682,-0.0919 -5.06422,0.0244 -7.39291,0.62863 -2.22919,0.57845 -6.26566,2.28157 -9.13321,3.85362 -0.11255,0.0617 -0.45831,-0.17298 -0.76836,-0.52151 z m 22.76572,-20.63907 c 5.28984,-1.48258 8.23852,-5.70574 8.92544,-12.78321 0.29166,-3.00502 -0.184,-5.18985 -1.97064,-9.05151 -2.4836,-5.36809 -5.56635,-7.7155 -10.17609,-7.74874 -4.29866,-0.031 -8.03571,0.16763 -8.03571,0.4271 0,0.137 1.1789,1.2329 2.61979,2.43535 6.09166,5.08359 9.20621,11.49581 8.14657,16.77213 -0.49187,2.44921 -2.09624,6.01678 -3.74008,8.31667 -1.99928,2.79718 -2.01931,2.65443 0.33403,2.38 1.15718,-0.13494 2.9107,-0.47145 3.89669,-0.74779 z m -7.20995,-48.03852 c 4.80414,-1.79746 7.38152,-6.65138 7.38152,-13.90141 0,-2.05474 -0.21665,-3.29349 -0.86561,-4.94943 -3.60148,-9.18988 -9.19026,-12.71228 -16.59921,-10.46188 -1.39435,0.42352 -2.53518,0.81906 -2.53518,0.87897 0,0.0599 0.86163,0.70235 1.91473,1.42765 1.0531,0.7253 2.98387,2.42616 4.29059,3.77969 6.25765,6.4818 6.39888,13.6667 0.43214,21.98346 -0.70418,0.98151 -1.28032,1.9292 -1.28032,2.10597 0,0.53799 5.15405,-0.0746 7.26134,-0.86302 z"
       id="path66"
       inkscape:connector-curvature="0"
       transform="scale(0.26458333)" />
    <path
       style="fill:#bc5fd3;stroke-width:0.35714287;stroke:none"
       d="m 321.88217,503.1354 c -0.44561,-0.83263 -1.67203,-9.65155 -4.30159,-30.93183 -3.02952,-24.51696 -3.29724,-26.72026 -5.70663,-46.96429 -1.18061,-9.91964 -2.24469,-18.80402 -2.36461,-19.74306 -0.18542,-1.4518 -0.41232,-1.83935 -1.51595,-2.58928 -2.0017,-1.36019 -3.96945,-1.2206 -5.7739,0.40962 -0.97474,0.88061 -1.4296,1.58889 -1.4296,2.22605 0,0.51398 2.16228,19.33903 4.80507,41.83345 5.98225,50.91857 5.49576,46.43561 5.03863,46.42996 -0.20868,-0.003 -1.9062,-0.32808 -3.77228,-0.72333 -1.89036,-0.4004 -5.6367,-0.81748 -8.45982,-0.94184 l -5.06696,-0.22321 -0.20202,-1.28561 c -0.11111,-0.70708 -1.41308,-11.24989 -2.89327,-23.42846 -6.17908,-50.83982 -9.12186,-74.74422 -9.45134,-76.77394 -0.72384,-4.45905 -0.23489,-6.49542 1.75779,-7.32081 1.18279,-0.48993 4.27985,-0.38647 37.35134,1.2477 18.46928,0.91263 24.76282,1.37342 27.04391,1.98006 0.81384,0.21643 1.67356,0.80453 2.21625,1.51603 0.81479,1.06824 1.3643,4.12747 6.78199,37.75669 3.24245,20.12685 6.38352,39.55738 6.98017,43.17895 0.59665,3.62157 1.08482,6.93282 1.08482,7.35832 0,0.56208 -0.68984,1.23235 -2.52267,2.4511 -5.08369,3.38042 -9.88045,8.63 -15.28775,16.7309 l -2.5627,3.83929 h -4.57774 c -5.51657,0 -8.56567,0.6804 -13.47885,3.0078 -3.07046,1.45449 -3.38391,1.53596 -3.69229,0.95974 z m 21.10199,-20.19717 c 6.21245,-1.31676 9.41785,-5.08733 10.34009,-12.16323 0.36079,-2.76821 0.33659,-3.53645 -0.17442,-5.53572 -1.40849,-5.51057 -4.43138,-9.95575 -7.79292,-11.45956 -1.72597,-0.77212 -2.30245,-0.83715 -6.70027,-0.75581 -2.64649,0.0489 -4.93661,0.2138 -5.08914,0.36634 -0.15254,0.15253 0.85324,1.21909 2.23506,2.37013 4.35711,3.62943 7.45642,8.50187 8.24094,12.95563 0.30803,1.74874 0.27086,2.58205 -0.19656,4.40659 -0.59934,2.33943 -2.54255,6.46401 -3.93316,8.34834 -1.3777,1.86686 -1.39569,1.98317 -0.30569,1.97643 0.55177,-0.004 2.07101,-0.23252 3.37607,-0.50914 z m -6.16804,-48.24342 c 2.20161,-0.66632 5.06171,-3.102 6.15195,-5.23906 1.03306,-2.02496 1.73923,-5.50621 1.74511,-8.60299 0.007,-3.4695 -1.33529,-7.21618 -3.88463,-10.84631 -3.54201,-5.04364 -7.92642,-6.55186 -13.78556,-4.74216 -1.31646,0.40662 -2.33785,0.78941 -2.26976,0.85065 0.0681,0.0613 1.3634,1.09185 2.87846,2.29023 9.08268,7.1842 10.32562,14.64159 4.05579,24.33377 -0.89754,1.38744 -1.63188,2.62127 -1.63188,2.74185 0,0.37526 4.72348,-0.17552 6.74052,-0.78598 z"
       id="path68"
       inkscape:connector-curvature="0"
       transform="scale(0.26458333)" />
    <path
       style="fill:#bc5fd3;stroke-width:0.35714287"
       d="m 276.3256,472.13098 c -8.71384,-1.17228 -11.09635,-1.88031 -13.32503,-3.95992 l -1.41959,-1.32463 -1.33502,-10.04459 -1.33502,-10.04459 1.02876,-1.89627 c 1.37989,-2.54348 3.8304,-5.16598 8.15261,-8.72477 3.84066,-3.1623 5.067,-4.36084 4.76795,-4.65988 -0.10293,-0.10293 -1.77605,-0.57293 -3.71804,-1.04444 -5.38922,-1.30848 -9.35552,-2.63621 -12.0043,-4.01845 -2.04586,-1.06761 -2.43007,-1.41964 -2.59152,-2.37451 -0.10426,-0.61659 -0.75039,-5.35946 -1.43586,-10.53971 l -1.2463,-9.41865 0.98068,-1.82726 c 2.11998,-3.95007 7.67378,-8.75125 15.49314,-13.3936 l 1.29818,-0.77073 0.22091,1.52158 c 0.1215,0.83687 2.3103,19.20015 4.86399,40.8073 2.55369,21.60714 4.73691,39.88839 4.85159,40.625 0.20695,1.32927 0.1996,1.33888 -0.98359,1.28577 -0.65566,-0.0294 -1.67425,-0.11837 -2.26354,-0.19765 z"
       id="path70"
       inkscape:connector-curvature="0"
       transform="scale(0.26458333)" />
    <path
       style="fill:#bc5fd3;stroke-width:0.35714287"
       d="m 279.67206,492.41879 c -3.67566,-3.10613 -8.83797,-5.88294 -13.63969,-7.33678 -0.60833,-0.18419 -0.59694,-0.27195 0.1762,-1.35773 0.45461,-0.63844 1.7805,-2.10004 2.94642,-3.248 3.21923,-3.16963 9.93847,-7.49186 10.54593,-6.78379 0.27544,0.32105 2.68524,20.44161 2.46957,20.61951 -0.0718,0.0592 -1.19612,-0.79269 -2.49843,-1.89321 z"
       id="path72"
       inkscape:connector-curvature="0"
       transform="scale(0.26458333)" />
    <path
       style="fill:#37c871;stroke-width:0.35714287"
       d="m 374.08135,469.25714 c -0.19596,-1.12946 -2.01195,-12.24041 -4.03555,-24.69099 l -3.67926,-22.63741 0.87239,-0.71734 c 0.47981,-0.39454 2.18317,-1.34995 3.78524,-2.12314 5.40412,-2.60814 10.26935,-2.63762 16.49375,-0.1 1.67413,0.68253 3.07615,1.20305 3.1156,1.15669 0.0394,-0.0464 0.59185,-1.12892 1.22758,-2.40571 1.67829,-3.37066 3.86564,-6.30271 6.68851,-8.96566 9.24322,-8.71959 20.66524,-9.33011 32.24908,-1.72375 l 3.15933,2.07452 -1.87479,4.75388 c -1.03114,2.61463 -4.82589,12.18691 -8.43278,21.27173 l -6.55797,16.51786 h -3.07627 c -5.36581,0 -8.76087,1.29174 -11.89924,4.52737 -2.76368,2.84934 -2.88959,3.10951 -2.1687,4.48138 0.39062,0.74336 0.67125,2.29352 0.76981,4.25224 l 0.15511,3.08242 -5.84523,0.25069 c -7.3137,0.31367 -12.74341,1.00017 -17.0317,2.15341 -1.83114,0.49244 -3.38093,0.89534 -3.44399,0.89534 -0.0631,0 -0.27496,-0.9241 -0.47092,-2.05357 z"
       id="path74"
       inkscape:connector-curvature="0"
       transform="scale(0.26458333)" />
    <path
       style="fill:#ff2a2a;stroke-width:0.35714287"
       d="m 436.2899,523.14484 c -0.76608,-0.56266 -2.50415,-2.01139 -3.86237,-3.21941 -2.75085,-2.44663 -7.85741,-5.09966 -11.45907,-5.95337 -2.80053,-0.66382 -10.00271,-0.65483 -13.21429,0.0165 -1.375,0.28742 -3.66232,1.10877 -5.08294,1.82522 l -2.58294,1.30265 -2.529,-2.09928 c -4.17266,-3.46367 -6.10573,-4.80513 -8.73369,-6.06079 -4.04132,-1.93096 -6.15501,-2.34737 -11.83393,-2.33136 -5.81108,0.0164 -8.15803,0.48561 -12.42103,2.4833 l -2.82639,1.32448 -1.82558,-1.82558 c -1.00407,-1.00408 -2.73551,-2.42974 -3.84764,-3.16815 -1.89897,-1.26085 -2.00025,-1.39988 -1.66403,-2.28422 0.80297,-2.11195 4.38252,-6.88082 7.73749,-10.3083 5.22144,-5.33426 11.04903,-8.85113 19.00254,-11.46775 7.33506,-2.41316 16.97487,-2.44182 25.17743,-0.0749 5.19113,1.49797 5.21612,1.45582 5.09573,-8.59702 -0.10746,-8.97251 0.0682,-9.7137 2.34596,-9.90152 0.84228,-0.0695 1.71348,0.11649 2.27755,0.48608 0.86707,0.56813 0.90258,0.71543 0.69874,2.89838 -0.12977,1.38967 -1.07926,4.8508 -2.39922,8.7457 -2.15537,6.36004 -2.38664,7.84693 -1.28616,8.26922 0.52346,0.20087 0.93009,-0.001 3.65245,-1.81727 0.96742,-0.64527 2.55151,-1.40866 3.5202,-1.69642 2.23292,-0.66333 6.81199,-0.66178 9.95105,0.003 3.97625,0.84257 10.60913,5.04839 10.60913,6.72714 0,0.87349 -2.07015,3.05183 -3.68146,3.87386 -2.66131,1.3577 -4.34626,1.81157 -7.56854,2.03871 -3.11286,0.21943 -3.21765,0.25539 -3.32062,1.1395 -0.0776,0.66603 0.48342,1.67606 2.07442,3.73486 5.72405,7.4071 9.03874,14.76271 9.94015,22.05814 0.32372,2.61997 0.18965,4.90123 -0.28805,4.90123 -0.14466,0 -0.88981,-0.46036 -1.65589,-1.02302 z"
       id="path76"
       inkscape:connector-curvature="0"
       transform="scale(0.26458333)" />
    <path
       style="fill:#ff9955;stroke-width:0.35714287"
       d="m 449.35838,520.50714 c -0.002,-0.24553 -0.16645,-1.89286 -0.3663,-3.66071 -0.51942,-4.59452 -1.91163,-9.42897 -3.9544,-13.7316 l -1.77166,-3.7316 1.17265,-0.90323 c 2.17516,-1.67543 4.99328,-4.47257 7.85942,-7.80092 l 2.85052,-3.3102 -1.55436,-2.72204 c -1.86659,-3.26881 -5.30069,-7.07342 -8.3461,-9.24658 -3.00465,-2.14408 -8.04044,-4.50107 -13.10534,-6.13393 l -4.18279,-1.34847 0.19453,-1.25 c 0.10699,-0.6875 -0.0475,-2.29424 -0.34339,-3.57052 l -0.53791,-2.32052 5.56587,-14.82234 c 3.06122,-8.15228 5.67636,-14.95069 5.8114,-15.10757 0.30358,-0.35265 2.59225,1.44437 7.57668,5.94907 4.4403,4.01296 9.61146,9.63654 13.44105,14.61699 3.99027,5.18942 4.66733,4.52652 2.47544,-2.42369 -2.16245,-6.85688 -7.02502,-15.38614 -14.81342,-25.98369 -1.89483,-2.57827 -3.44515,-4.86387 -3.44515,-5.07913 0,-0.53761 9.7678,-18.40146 10.06176,-18.40146 0.2324,0 2.45278,2.65815 11.93298,14.28571 5.06357,6.21053 9.418,11.07143 9.91785,11.07143 0.16395,0 0.496,-0.88433 0.73788,-1.96519 0.8323,-3.71908 -0.7275,-8.79331 -4.36265,-14.19232 -0.82779,-1.22944 -3.46049,-4.80677 -5.85047,-7.94963 -5.41384,-7.1193 -7.10093,-9.65634 -6.85225,-10.30438 0.10691,-0.2786 2.23659,-3.08863 4.73262,-6.24451 l 4.53824,-5.73797 6.6494,6.73768 c 3.65717,3.70572 7.69405,7.49266 8.97083,8.41542 2.17521,1.57206 2.32883,1.62867 2.43881,0.89882 0.27455,-1.82202 -0.77484,-5.89913 -2.28992,-8.89681 -1.73112,-3.42511 -3.81233,-6.31359 -7.62245,-10.57906 -2.9338,-3.28442 -3.14947,-2.63869 1.93785,-5.80214 6.71135,-4.17331 11.4077,-5.80848 16.6825,-5.80848 5.1984,0 9.27046,1.2429 14.50068,4.42598 4.37399,2.66199 10.70368,12.20546 12.34288,18.60973 0.80324,3.13821 0.89968,5.13011 1.12392,23.21429 l 0.20372,16.42857 -9.39113,1.90702 c -8.39299,1.70434 -9.74066,2.07723 -12.67954,3.50836 -5.46434,2.66092 -9.85683,7.28475 -12.84626,13.52279 -0.75094,1.56698 -8.03498,19.27852 -16.18677,39.35899 l -14.82143,36.50993 -4.19643,0.007 c -3.12133,0.005 -4.19718,-0.1072 -4.19936,-0.43926 z"
       id="path78"
       inkscape:connector-curvature="0"
       transform="scale(0.26458333)" />
    <path
       style="fill:#2ad4ff;stroke-width:0.35714287;stroke:none"
       d="m 553.10604,543.79335 c -2.65537,-2.69834 -6.28778,-5.15374 -9.43652,-6.37884 l -2.404,-0.93533 4.74113,-17.11669 c 2.60762,-9.41418 4.66076,-17.24673 4.56253,-17.40566 -0.0982,-0.15893 -0.37589,-0.28897 -0.61704,-0.28897 -0.24114,0 -4.1215,7.53285 -8.62302,16.73968 l -8.18459,16.73968 -4.12375,0.18838 c -4.48613,0.20492 -7.54703,0.97627 -11.21578,2.82638 l -2.09203,1.05499 -0.55585,-0.82813 c -2.78704,-4.15229 -12.89238,-9.74208 -18.64264,-10.31221 -5.19523,-0.5151 -12.23254,0.74888 -17.58422,3.15832 l -2.22148,1.00016 -1.40665,-2.10646 c -1.49188,-2.23412 -3.37752,-3.83218 -5.83106,-4.94178 l -1.49739,-0.67719 1.36778,-3.29591 c 20.60198,-49.64424 28.20994,-68.16943 28.41457,-69.18877 0.46282,-2.3055 2.27654,-5.56922 4.11863,-7.4113 3.21489,-3.21489 4.40777,-3.61738 23.55808,-7.94857 9.52679,-2.15466 17.67863,-4.00174 18.11521,-4.10462 0.66553,-0.15684 0.7596,-0.35788 0.58231,-1.24437 -0.24812,-1.24058 0.59075,-3.56703 1.9151,-5.31118 1.76488,-2.32432 1.46397,-2.30907 19.14875,-0.97058 8.74697,0.66203 16.07539,1.30987 16.28539,1.43966 0.68901,0.42583 0.40321,1.97865 -1.04676,5.68718 -0.78571,2.0096 -1.42857,3.84699 -1.42857,4.08309 0,0.23611 4.97352,7.88698 11.05227,17.00195 12.15884,18.23196 12.35073,18.6 12.09305,23.19387 -0.13496,2.40622 -0.88297,4.32747 -13.34058,34.26509 l -13.19759,31.71593 -4.46429,0.12478 c -2.45536,0.0686 -5.59071,0.37092 -6.96745,0.67176 -2.22876,0.48701 -6.93753,1.89946 -8.39496,2.51817 -0.36405,0.15454 -1.24014,-0.48081 -2.67858,-1.94251 z m 7.84892,-67.09885 c 0.49026,-0.9675 1.04916,-2.46307 1.24198,-3.3235 0.89405,-3.9894 -2.19764,-9.55443 -14.73591,-26.52457 -3.33798,-4.51786 -6.11633,-8.27341 -6.17411,-8.34568 -0.39073,-0.4887 -22.3881,3.8497 -28.71132,5.66255 -5.50694,1.57882 -7.40794,2.63647 -8.99509,5.00456 -1.31141,1.95668 -2.39193,5.06246 -1.83397,5.27146 0.16134,0.0604 13.23085,5.47586 29.04335,12.0343 15.8125,6.55844 28.86783,11.93692 29.01184,11.95219 0.14401,0.0153 0.66296,-0.76382 1.15323,-1.73131 z"
       id="path80"
       inkscape:connector-curvature="0"
       transform="scale(0.26458333)" />
    <path
       style="opacity:1;fill:#008033;stroke:#008033;stroke-width:0.35714287;stroke-opacity:1;paint-order:fill markers stroke"
       d="m 326.90611,612.82857 -84.08988,0.46574 v 0 c 2.62999,-8.87353 5.57544,-27.99253 11.01824,-59.12645 5.4428,-31.13393 9.95805,-56.67458 10.03389,-56.75699 0.22054,-0.23967 3.66524,1.45637 6.01363,2.96089 3.34554,2.14334 6.4342,5.02448 8.83176,8.23837 l 2.19098,2.93697 3.32643,-2.22401 c 1.88976,-1.26348 4.67999,-2.73077 6.46044,-3.39733 2.95673,-1.10693 3.40764,-1.17468 7.97157,-1.19774 l 4.83757,-0.0245 2.80589,1.38557 c 4.07148,2.01053 8.09308,6.27363 13.09784,13.88441 0.12195,0.18545 1.24695,-0.49456 2.5,-1.51113 3.18378,-2.58293 6.43584,-4.44339 9.77827,-5.594 2.42119,-0.83348 3.45882,-0.98649 6.80033,-1.00277 3.88461,-0.0189 3.98541,0.002 6.78544,1.38356 3.54485,1.74955 7.57864,5.69848 10.69995,10.47482 1.17857,1.8035 2.25338,3.28401 2.38848,3.29003 0.13509,0.006 1.82259,-1.06069 3.75,-2.37046 4.47222,-3.03911 7.74685,-4.55004 11.51682,-5.31393 3.59964,-0.72938 6.14236,-0.54102 9.43702,0.69909 4.62297,1.74008 8.60264,4.92487 12.27376,9.82226 1.11716,1.49033 2.14251,2.8461 2.27855,3.01283 0.13604,0.16672 1.4288,-0.49314 2.87279,-1.46635 5.95349,-4.01253 9.20093,-5.36079 13.69842,-5.68727 2.64847,-0.19225 3.05929,-0.12401 5.58621,0.92795 4.80417,1.99998 10.10965,6.36931 13.8954,11.44355 0.87354,1.17085 1.72193,2.13529 1.8853,2.14319 0.16337,0.008 0.96694,-0.53184 1.78571,-1.19941 2.30328,-1.87795 5.56057,-3.65667 8.66258,-4.73039 2.47332,-0.85611 3.38338,-0.98084 7.29039,-0.99917 l 4.46428,-0.021 3.1586,1.57213 c 3.95911,1.97056 8.31583,5.97306 11.16867,10.26062 1.09373,1.64378 2.10817,2.98868 2.25432,2.98868 0.14614,0 1.93936,-1.06153 3.98492,-2.35896 6.28295,-3.98505 8.87904,-5.04368 13.19776,-5.38171 6.80431,-0.53258 14.10544,4.03071 19.25499,12.03461 1.07131,1.66512 1.98918,3.08822 2.03973,3.16246 0.0505,0.0742 1.63707,-0.86599 3.52559,-2.08939 6.08077,-3.93913 11.73477,-6.08128 16.05102,-6.08128 3.11643,0 9.03691,2.83226 13.30636,6.36555 1.46144,1.20945 4.85894,5.15363 6.18925,7.18516 l 0.55977,0.85484 2.42954,-1.86214 c 4.87172,-3.73397 8.82471,-5.2054 14.01044,-5.21515 1.99702,-0.004 3.71649,0.0787 3.82105,0.18327 0.14777,0.14777 -9.52105,53.94409 -10.31636,57.39919 l -0.18497,0.80357 -75.97534,-0.0885 c -41.78643,-0.0487 -113.48197,-0.12939 -159.3234,-0.17933 z"
       id="path82"
       inkscape:connector-curvature="0"
       transform="scale(0.26458333)"
       sodipodi:nodetypes="cccsccsccsccsssscccccscccccssccccccsscscccssccsccscscc" />
  </g>
</svg>
